<svg width="1140" height="744" viewBox="0 0 1140 744" fill="none" xmlns="http://www.w3.org/2000/svg">
<g filter="url(#filter0_dd_59_7976)">
<g clip-path="url(#clip0_59_7976)">
<rect x="20" y="10" width="1100" height="694" rx="20" fill="white"/>
<path d="M40.9999 34.6937C38.6987 34.6937 36.8333 32.8283 36.8333 30.5271C36.8333 28.2258 38.6987 26.3604 40.9999 26.3604C43.3012 26.3604 45.1666 28.2258 45.1666 30.5271C45.1666 32.8283 43.3012 34.6937 40.9999 34.6937Z" fill="#E11D48"/>
<path d="M55.9999 34.6937C53.6987 34.6937 51.8333 32.8283 51.8333 30.5271C51.8333 28.2258 53.6987 26.3604 55.9999 26.3604C58.3012 26.3604 60.1666 28.2258 60.1666 30.5271C60.1666 32.8283 58.3012 34.6937 55.9999 34.6937Z" fill="#FBBF24"/>
<path d="M70.9999 34.6937C68.6987 34.6937 66.8333 32.8283 66.8333 30.5271C66.8333 28.2258 68.6987 26.3604 70.9999 26.3604C73.3012 26.3604 75.1666 28.2258 75.1666 30.5271C75.1666 32.8283 73.3012 34.6937 70.9999 34.6937Z" fill="#22C55E"/>
<path d="M1061.76 30.5L1066.71 35.45C1066.8 35.5422 1066.88 35.6526 1066.93 35.7746C1066.98 35.8966 1067.01 36.0278 1067.01 36.1606C1067.01 36.2934 1066.99 36.4251 1066.94 36.548C1066.89 36.6708 1066.81 36.7825 1066.72 36.8764C1066.63 36.9703 1066.51 37.0445 1066.39 37.0948C1066.27 37.1451 1066.14 37.1704 1066 37.1692C1065.87 37.1681 1065.74 37.1405 1065.62 37.0881C1065.5 37.0357 1065.39 36.9595 1065.29 36.864L1059.64 31.207C1059.45 31.0195 1059.34 30.7652 1059.34 30.5C1059.34 30.2348 1059.45 29.9805 1059.64 29.793L1065.29 24.136C1065.48 23.9538 1065.73 23.853 1066 23.8553C1066.26 23.8576 1066.51 23.9628 1066.69 24.1482C1066.88 24.3336 1066.99 24.5844 1066.99 24.8466C1066.99 25.1088 1066.89 25.3614 1066.71 25.55L1061.76 30.5Z" fill="#94A3B8"/>
<path d="M1093.31 30.571L1088.36 25.621C1088.18 25.4324 1088.08 25.1798 1088.08 24.9176C1088.09 24.6554 1088.19 24.4046 1088.38 24.2192C1088.56 24.0338 1088.81 23.9286 1089.07 23.9263C1089.34 23.924 1089.59 24.0248 1089.78 24.207L1095.43 29.864C1095.62 30.0515 1095.73 30.3058 1095.73 30.571C1095.73 30.8361 1095.62 31.0905 1095.43 31.278L1089.78 36.935C1089.59 37.1171 1089.34 37.2179 1089.07 37.2157C1088.81 37.2134 1088.56 37.1082 1088.38 36.9228C1088.19 36.7374 1088.09 36.4866 1088.08 36.2244C1088.08 35.9622 1088.18 35.7096 1088.36 35.521L1093.31 30.571Z" fill="#475569"/>
<rect x="323.515" y="18" width="494.903" height="25" rx="5" fill="#F1F5F9"/>
<path d="M530.898 33.875L532.527 28.6602H533.242L533.101 29.6973L531.443 35H530.746L530.898 33.875ZM529.802 28.6602L531.191 33.9336L531.291 35H530.558L528.719 28.6602H529.802ZM534.801 33.8926L536.125 28.6602H537.203L535.363 35H534.636L534.801 33.8926ZM533.4 28.6602L534.994 33.7871L535.176 35H534.484L532.779 29.6855L532.638 28.6602H533.4ZM539.922 33.875L541.551 28.6602H542.265L542.125 29.6973L540.467 35H539.769L539.922 33.875ZM538.826 28.6602L540.215 33.9336L540.314 35H539.582L537.742 28.6602H538.826ZM543.824 33.8926L545.148 28.6602H546.226L544.386 35H543.66L543.824 33.8926ZM542.424 28.6602L544.017 33.7871L544.199 35H543.508L541.802 29.6855L541.662 28.6602H542.424ZM548.945 33.875L550.574 28.6602H551.289L551.148 29.6973L549.49 35H548.793L548.945 33.875ZM547.849 28.6602L549.238 33.9336L549.338 35H548.605L546.765 28.6602H547.849ZM552.847 33.8926L554.172 28.6602H555.25L553.41 35H552.683L552.847 33.8926ZM551.447 28.6602L553.041 33.7871L553.222 35H552.531L550.826 29.6855L550.685 28.6602H551.447ZM555.654 34.4258C555.654 34.2422 555.711 34.0879 555.824 33.9629C555.941 33.834 556.109 33.7695 556.328 33.7695C556.547 33.7695 556.713 33.834 556.826 33.9629C556.943 34.0879 557.002 34.2422 557.002 34.4258C557.002 34.6055 556.943 34.7578 556.826 34.8828C556.713 35.0078 556.547 35.0703 556.328 35.0703C556.109 35.0703 555.941 35.0078 555.824 34.8828C555.711 34.7578 555.654 34.6055 555.654 34.4258ZM562.492 33.3184C562.492 33.1621 562.457 33.0176 562.386 32.8848C562.32 32.748 562.181 32.625 561.97 32.5156C561.763 32.4023 561.451 32.3047 561.033 32.2227C560.681 32.1484 560.363 32.0605 560.078 31.959C559.797 31.8574 559.556 31.7344 559.357 31.5898C559.162 31.4453 559.011 31.2754 558.906 31.0801C558.801 30.8848 558.748 30.6562 558.748 30.3945C558.748 30.1445 558.802 29.9082 558.912 29.6855C559.025 29.4629 559.183 29.2656 559.386 29.0938C559.594 28.9219 559.842 28.7871 560.131 28.6895C560.42 28.5918 560.742 28.543 561.097 28.543C561.605 28.543 562.039 28.6328 562.398 28.8125C562.758 28.9922 563.033 29.2324 563.224 29.5332C563.416 29.8301 563.511 30.1602 563.511 30.5234H562.427C562.427 30.3477 562.375 30.1777 562.269 30.0137C562.168 29.8457 562.017 29.707 561.818 29.5977C561.623 29.4883 561.383 29.4336 561.097 29.4336C560.797 29.4336 560.552 29.4805 560.365 29.5742C560.181 29.6641 560.047 29.7793 559.961 29.9199C559.879 30.0605 559.838 30.209 559.838 30.3652C559.838 30.4824 559.857 30.5879 559.896 30.6816C559.939 30.7715 560.013 30.8555 560.119 30.9336C560.224 31.0078 560.373 31.0781 560.564 31.1445C560.756 31.2109 561 31.2773 561.297 31.3438C561.816 31.4609 562.244 31.6016 562.58 31.7656C562.916 31.9297 563.166 32.1309 563.33 32.3691C563.494 32.6074 563.576 32.8965 563.576 33.2363C563.576 33.5137 563.517 33.7676 563.4 33.998C563.287 34.2285 563.121 34.4277 562.902 34.5957C562.687 34.7598 562.429 34.8887 562.129 34.9824C561.832 35.0723 561.498 35.1172 561.127 35.1172C560.568 35.1172 560.095 35.0176 559.709 34.8184C559.322 34.6191 559.029 34.3613 558.83 34.0449C558.631 33.7285 558.531 33.3945 558.531 33.043H559.621C559.636 33.3398 559.722 33.5762 559.879 33.752C560.035 33.9238 560.226 34.0469 560.453 34.1211C560.679 34.1914 560.904 34.2266 561.127 34.2266C561.424 34.2266 561.672 34.1875 561.871 34.1094C562.074 34.0312 562.228 33.9238 562.334 33.7871C562.439 33.6504 562.492 33.4941 562.492 33.3184ZM564.713 31.9004V31.7656C564.713 31.3086 564.779 30.8848 564.912 30.4941C565.045 30.0996 565.236 29.7578 565.486 29.4688C565.736 29.1758 566.039 28.9492 566.394 28.7891C566.75 28.625 567.148 28.543 567.59 28.543C568.035 28.543 568.435 28.625 568.791 28.7891C569.15 28.9492 569.455 29.1758 569.705 29.4688C569.959 29.7578 570.152 30.0996 570.285 30.4941C570.418 30.8848 570.484 31.3086 570.484 31.7656V31.9004C570.484 32.3574 570.418 32.7812 570.285 33.1719C570.152 33.5625 569.959 33.9043 569.705 34.1973C569.455 34.4863 569.152 34.7129 568.797 34.877C568.445 35.0371 568.047 35.1172 567.601 35.1172C567.156 35.1172 566.756 35.0371 566.4 34.877C566.045 34.7129 565.74 34.4863 565.486 34.1973C565.236 33.9043 565.045 33.5625 564.912 33.1719C564.779 32.7812 564.713 32.3574 564.713 31.9004ZM565.797 31.7656V31.9004C565.797 32.2168 565.834 32.5156 565.908 32.7969C565.982 33.0742 566.094 33.3203 566.242 33.5352C566.394 33.75 566.584 33.9199 566.81 34.0449C567.037 34.166 567.301 34.2266 567.601 34.2266C567.898 34.2266 568.158 34.166 568.381 34.0449C568.607 33.9199 568.795 33.75 568.943 33.5352C569.092 33.3203 569.203 33.0742 569.277 32.7969C569.355 32.5156 569.394 32.2168 569.394 31.9004V31.7656C569.394 31.4531 569.355 31.1582 569.277 30.8809C569.203 30.5996 569.09 30.3516 568.937 30.1367C568.789 29.918 568.601 29.7461 568.375 29.6211C568.152 29.4961 567.89 29.4336 567.59 29.4336C567.293 29.4336 567.031 29.4961 566.804 29.6211C566.582 29.7461 566.394 29.918 566.242 30.1367C566.094 30.3516 565.982 30.5996 565.908 30.8809C565.834 31.1582 565.797 31.4531 565.797 31.7656ZM573.021 26V35H571.931V26H573.021ZM575.939 26V35H574.849V26H575.939ZM580.31 35.1172C579.869 35.1172 579.469 35.043 579.109 34.8945C578.754 34.7422 578.447 34.5293 578.189 34.2559C577.935 33.9824 577.74 33.6582 577.603 33.2832C577.467 32.9082 577.398 32.498 577.398 32.0527V31.8066C577.398 31.291 577.474 30.832 577.627 30.4297C577.779 30.0234 577.986 29.6797 578.248 29.3984C578.51 29.1172 578.806 28.9043 579.138 28.7598C579.47 28.6152 579.814 28.543 580.17 28.543C580.623 28.543 581.013 28.6211 581.342 28.7773C581.674 28.9336 581.945 29.1523 582.156 29.4336C582.367 29.7109 582.523 30.0391 582.625 30.418C582.726 30.793 582.777 31.2031 582.777 31.6484V32.1348H578.043V31.25H581.693V31.168C581.677 30.8867 581.619 30.6133 581.517 30.3477C581.42 30.082 581.263 29.8633 581.049 29.6914C580.834 29.5195 580.541 29.4336 580.17 29.4336C579.924 29.4336 579.697 29.4863 579.49 29.5918C579.283 29.6934 579.105 29.8457 578.957 30.0488C578.808 30.252 578.693 30.5 578.611 30.793C578.529 31.0859 578.488 31.4238 578.488 31.8066V32.0527C578.488 32.3535 578.529 32.6367 578.611 32.9023C578.697 33.1641 578.82 33.3945 578.98 33.5938C579.144 33.793 579.342 33.9492 579.572 34.0625C579.806 34.1758 580.072 34.2324 580.369 34.2324C580.752 34.2324 581.076 34.1543 581.342 33.998C581.607 33.8418 581.84 33.6328 582.039 33.3711L582.695 33.8926C582.558 34.0996 582.385 34.2969 582.174 34.4844C581.963 34.6719 581.703 34.8242 581.394 34.9414C581.09 35.0586 580.728 35.1172 580.31 35.1172ZM585.127 29.6562V35H584.043V28.6602H585.097L585.127 29.6562ZM587.107 28.625L587.101 29.6328C587.011 29.6133 586.926 29.6016 586.844 29.5977C586.765 29.5898 586.676 29.5859 586.574 29.5859C586.324 29.5859 586.103 29.625 585.912 29.7031C585.72 29.7812 585.558 29.8906 585.426 30.0312C585.293 30.1719 585.187 30.3398 585.109 30.5352C585.035 30.7266 584.986 30.9375 584.963 31.168L584.658 31.3438C584.658 30.9609 584.695 30.6016 584.769 30.2656C584.847 29.9297 584.967 29.6328 585.127 29.375C585.287 29.1133 585.49 28.9102 585.736 28.7656C585.986 28.6172 586.283 28.543 586.627 28.543C586.705 28.543 586.795 28.5527 586.896 28.5723C586.998 28.5879 587.068 28.6055 587.107 28.625ZM587.4 34.4258C587.4 34.2422 587.457 34.0879 587.57 33.9629C587.687 33.834 587.855 33.7695 588.074 33.7695C588.293 33.7695 588.459 33.834 588.572 33.9629C588.689 34.0879 588.748 34.2422 588.748 34.4258C588.748 34.6055 588.689 34.7578 588.572 34.8828C588.459 35.0078 588.293 35.0703 588.074 35.0703C587.855 35.0703 587.687 35.0078 587.57 34.8828C587.457 34.7578 587.4 34.6055 587.4 34.4258ZM593.084 34.2266C593.342 34.2266 593.58 34.1738 593.799 34.0684C594.017 33.9629 594.197 33.8184 594.338 33.6348C594.478 33.4473 594.558 33.2344 594.578 32.9961H595.609C595.59 33.3711 595.463 33.7207 595.228 34.0449C594.998 34.3652 594.695 34.625 594.32 34.8242C593.945 35.0195 593.533 35.1172 593.084 35.1172C592.607 35.1172 592.191 35.0332 591.836 34.8652C591.484 34.6973 591.191 34.4668 590.957 34.1738C590.726 33.8809 590.552 33.5449 590.435 33.166C590.322 32.7832 590.265 32.3789 590.265 31.9531V31.707C590.265 31.2812 590.322 30.8789 590.435 30.5C590.552 30.1172 590.726 29.7793 590.957 29.4863C591.191 29.1934 591.484 28.9629 591.836 28.7949C592.191 28.627 592.607 28.543 593.084 28.543C593.58 28.543 594.013 28.6445 594.385 28.8477C594.756 29.0469 595.047 29.3203 595.258 29.668C595.472 30.0117 595.59 30.4023 595.609 30.8398H594.578C594.558 30.5781 594.484 30.3418 594.355 30.1309C594.23 29.9199 594.058 29.752 593.84 29.627C593.625 29.498 593.373 29.4336 593.084 29.4336C592.752 29.4336 592.472 29.5 592.246 29.6328C592.023 29.7617 591.845 29.9375 591.713 30.1602C591.584 30.3789 591.49 30.623 591.431 30.8926C591.377 31.1582 591.349 31.4297 591.349 31.707V31.9531C591.349 32.2305 591.377 32.5039 591.431 32.7734C591.486 33.043 591.578 33.2871 591.707 33.5059C591.84 33.7246 592.017 33.9004 592.24 34.0332C592.467 34.1621 592.748 34.2266 593.084 34.2266ZM596.541 31.9004V31.7656C596.541 31.3086 596.607 30.8848 596.74 30.4941C596.873 30.0996 597.064 29.7578 597.314 29.4688C597.564 29.1758 597.867 28.9492 598.222 28.7891C598.578 28.625 598.976 28.543 599.418 28.543C599.863 28.543 600.263 28.625 600.619 28.7891C600.978 28.9492 601.283 29.1758 601.533 29.4688C601.787 29.7578 601.98 30.0996 602.113 30.4941C602.246 30.8848 602.312 31.3086 602.312 31.7656V31.9004C602.312 32.3574 602.246 32.7812 602.113 33.1719C601.98 33.5625 601.787 33.9043 601.533 34.1973C601.283 34.4863 600.98 34.7129 600.625 34.877C600.273 35.0371 599.875 35.1172 599.429 35.1172C598.984 35.1172 598.584 35.0371 598.228 34.877C597.873 34.7129 597.568 34.4863 597.314 34.1973C597.064 33.9043 596.873 33.5625 596.74 33.1719C596.607 32.7812 596.541 32.3574 596.541 31.9004ZM597.625 31.7656V31.9004C597.625 32.2168 597.662 32.5156 597.736 32.7969C597.81 33.0742 597.922 33.3203 598.07 33.5352C598.222 33.75 598.412 33.9199 598.638 34.0449C598.865 34.166 599.129 34.2266 599.429 34.2266C599.726 34.2266 599.986 34.166 600.209 34.0449C600.435 33.9199 600.623 33.75 600.771 33.5352C600.92 33.3203 601.031 33.0742 601.105 32.7969C601.183 32.5156 601.222 32.2168 601.222 31.9004V31.7656C601.222 31.4531 601.183 31.1582 601.105 30.8809C601.031 30.5996 600.918 30.3516 600.765 30.1367C600.617 29.918 600.429 29.7461 600.203 29.6211C599.98 29.4961 599.719 29.4336 599.418 29.4336C599.121 29.4336 598.859 29.4961 598.633 29.6211C598.41 29.7461 598.222 29.918 598.07 30.1367C597.922 30.3516 597.81 30.5996 597.736 30.8809C597.662 31.1582 597.625 31.4531 597.625 31.7656ZM604.75 29.9199V35H603.66V28.6602H604.691L604.75 29.9199ZM604.527 31.5898L604.023 31.5723C604.027 31.1387 604.084 30.7383 604.193 30.3711C604.302 30 604.465 29.6777 604.679 29.4043C604.894 29.1309 605.162 28.9199 605.482 28.7715C605.802 28.6191 606.174 28.543 606.595 28.543C606.892 28.543 607.166 28.5859 607.416 28.6719C607.666 28.7539 607.883 28.8848 608.066 29.0645C608.25 29.2441 608.392 29.4746 608.494 29.7559C608.595 30.0371 608.646 30.377 608.646 30.7754V35H607.562V30.8281C607.562 30.4961 607.506 30.2305 607.392 30.0312C607.283 29.832 607.127 29.6875 606.924 29.5977C606.72 29.5039 606.482 29.457 606.209 29.457C605.888 29.457 605.621 29.5137 605.406 29.627C605.191 29.7402 605.019 29.8965 604.89 30.0957C604.761 30.2949 604.668 30.5234 604.609 30.7812C604.554 31.0352 604.527 31.3047 604.527 31.5898ZM608.635 30.9922L607.908 31.2148C607.912 30.8672 607.969 30.5332 608.078 30.2129C608.191 29.8926 608.353 29.6074 608.564 29.3574C608.779 29.1074 609.043 28.9102 609.355 28.7656C609.668 28.6172 610.025 28.543 610.427 28.543C610.767 28.543 611.068 28.5879 611.33 28.6777C611.595 28.7676 611.818 28.9062 611.998 29.0938C612.181 29.2773 612.32 29.5137 612.414 29.8027C612.508 30.0918 612.554 30.4355 612.554 30.834V35H611.465V30.8223C611.465 30.4668 611.408 30.1914 611.295 29.9961C611.185 29.7969 611.029 29.6582 610.826 29.5801C610.627 29.498 610.388 29.457 610.111 29.457C609.873 29.457 609.662 29.498 609.478 29.5801C609.295 29.6621 609.14 29.7754 609.015 29.9199C608.89 30.0605 608.795 30.2227 608.728 30.4062C608.666 30.5898 608.635 30.7852 608.635 30.9922Z" fill="#94A3B8"/>
<rect x="20" y="51" width="1100" height="653" fill="#E0F2FE"/>
<path d="M20 51.8707H204.255V704H20V51.8707Z" fill="#BFDBFE"/>
<path d="M42.1106 113.688C42.1106 107.918 47.0602 103.24 53.1659 103.24H171.089C177.194 103.24 182.144 107.918 182.144 113.688C182.144 119.458 177.194 124.136 171.089 124.136H53.1659C47.0602 124.136 42.1106 119.458 42.1106 113.688Z" fill="#93C5FD"/>
<path d="M86.3315 186.824C86.3315 183.939 88.8064 181.6 91.8592 181.6H183.986C187.039 181.6 189.514 183.939 189.514 186.824C189.514 189.709 187.039 192.048 183.986 192.048H91.8592C88.8063 192.048 86.3315 189.709 86.3315 186.824Z" fill="white"/>
<path d="M86.3315 242.547C86.3315 239.661 88.8064 237.323 91.8592 237.323H155.427C158.48 237.323 160.955 239.661 160.955 242.547C160.955 245.432 158.48 247.771 155.427 247.771H91.8592C88.8064 247.771 86.3315 245.432 86.3315 242.547Z" fill="white"/>
<path d="M86.3315 298.269C86.3315 295.384 88.8064 293.045 91.8592 293.045H171.089C174.141 293.045 176.616 295.384 176.616 298.269C176.616 301.154 174.141 303.493 171.089 303.493H91.8592C88.8063 303.493 86.3315 301.154 86.3315 298.269Z" fill="white"/>
<path fill-rule="evenodd" clip-rule="evenodd" d="M56.851 198.143C63.4654 198.143 68.8275 193.075 68.8275 186.824C68.8275 180.573 63.4654 175.505 56.851 175.505C50.2365 175.505 44.8744 180.573 44.8744 186.824C44.8744 193.075 50.2365 198.143 56.851 198.143ZM56.851 200.755C64.9918 200.755 71.5913 194.518 71.5913 186.824C71.5913 179.13 64.9918 172.893 56.851 172.893C48.7101 172.893 42.1106 179.13 42.1106 186.824C42.1106 194.518 48.7101 200.755 56.851 200.755Z" fill="#93C5FD"/>
<path d="M263.216 113.688C263.216 109.841 266.516 106.723 270.586 106.723H377.454C381.524 106.723 384.824 109.841 384.824 113.688C384.824 117.535 381.524 120.653 377.454 120.653H270.586C266.516 120.653 263.216 117.535 263.216 113.688Z" fill="#BFDBFE"/>
<path fill-rule="evenodd" clip-rule="evenodd" d="M458.987 394.531C459.04 389.565 463.215 385.336 468.58 385.336C471.874 385.336 474.296 386.877 475.842 388.327C476.273 388.731 476.642 389.134 476.951 389.505C477.261 389.134 477.63 388.731 478.06 388.327C479.606 386.877 482.029 385.336 485.322 385.336C490.688 385.336 494.862 389.565 494.916 394.531L494.916 394.531C495.018 404.217 486.783 410.918 478.506 416.228C478.047 416.522 477.506 416.68 476.951 416.68C476.397 416.68 475.855 416.522 475.397 416.228C467.118 410.918 458.883 404.217 458.987 394.531L458.987 394.531ZM478.186 392.453C477.951 392.894 477.473 393.172 476.951 393.172C476.429 393.172 475.952 392.894 475.717 392.453C475.717 392.453 475.716 392.452 475.715 392.45C475.714 392.447 475.711 392.442 475.707 392.435C475.705 392.431 475.703 392.427 475.7 392.422C475.684 392.395 475.658 392.35 475.622 392.29C475.55 392.171 475.437 391.993 475.283 391.776C474.975 391.34 474.511 390.759 473.895 390.181C472.657 389.019 470.894 387.948 468.58 387.948C464.832 387.948 461.79 390.925 461.75 394.557M478.186 392.453C478.186 392.453 478.186 392.452 478.187 392.45C478.19 392.445 478.195 392.436 478.203 392.422C478.218 392.395 478.244 392.35 478.28 392.29C478.353 392.171 478.466 391.993 478.619 391.776C478.928 391.34 479.392 390.759 480.008 390.181C481.246 389.019 483.008 387.948 485.322 387.948C489.07 387.948 492.113 390.925 492.152 394.557C492.238 402.719 485.303 408.711 476.953 414.067L476.951 414.068L476.95 414.067C468.599 408.711 461.663 402.719 461.75 394.558" fill="white"/>
<path d="M263.216 401.008C263.216 397.161 266.516 394.043 270.586 394.043H320.335C324.405 394.043 327.705 397.161 327.705 401.008C327.705 404.855 324.405 407.973 320.335 407.973H270.586C266.516 407.973 263.216 404.855 263.216 401.008Z" fill="#BFDBFE"/>
<path d="M342.446 401.008C342.446 397.161 345.745 394.043 349.816 394.043H432.73C436.801 394.043 440.101 397.161 440.101 401.008C440.101 404.855 436.801 407.973 432.73 407.973H349.816C345.745 407.973 342.446 404.855 342.446 401.008Z" fill="#BFDBFE"/>
<path d="M263.216 468.92C263.216 466.035 265.691 463.696 268.744 463.696H346.131C349.183 463.696 351.658 466.035 351.658 468.92C351.658 471.805 349.183 474.144 346.131 474.144H268.744C265.691 474.144 263.216 471.805 263.216 468.92Z" fill="white"/>
<path d="M263.216 493.299C263.216 490.414 265.691 488.075 268.744 488.075H387.588C390.641 488.075 393.116 490.414 393.116 493.299C393.116 496.184 390.641 498.523 387.588 498.523H268.744C265.691 498.523 263.216 496.184 263.216 493.299Z" fill="white"/>
<path d="M366.399 468.92C366.399 466.035 368.873 463.696 371.926 463.696H464.054C467.106 463.696 469.581 466.035 469.581 468.92C469.581 471.805 467.106 474.144 464.054 474.144H371.926C368.873 474.144 366.399 471.805 366.399 468.92Z" fill="white"/>
<path d="M263.216 181.6C263.216 178.715 265.691 176.376 268.744 176.376H346.131C349.183 176.376 351.658 178.715 351.658 181.6C351.658 184.485 349.183 186.824 346.131 186.824H268.744C265.691 186.824 263.216 184.485 263.216 181.6Z" fill="white"/>
<path d="M263.216 205.979C263.216 203.094 265.691 200.755 268.744 200.755H459.447C462.5 200.755 464.975 203.094 464.975 205.979C464.975 208.864 462.5 211.203 459.447 211.203H268.744C265.691 211.203 263.216 208.864 263.216 205.979Z" fill="white"/>
<path d="M366.399 181.6C366.399 178.715 368.873 176.376 371.926 176.376H581.977C585.029 176.376 587.504 178.715 587.504 181.6C587.504 184.485 585.029 186.824 581.977 186.824H371.926C368.873 186.824 366.399 184.485 366.399 181.6Z" fill="white"/>
<path fill-rule="evenodd" clip-rule="evenodd" d="M69.7487 231.228H45.7956V253.865H69.7487V231.228ZM43.0317 228.616V256.477H72.5125V228.616H43.0317Z" fill="#60A5FA"/>
<g clip-path="url(#clip1_59_7976)">
<rect x="658.442" y="113.688" width="184.255" height="238.563" rx="20" fill="white"/>
<path d="M781.18 352.457C781.18 412.824 729.826 461.762 666.479 461.762C603.131 461.762 551.778 412.824 551.778 352.457C551.778 292.089 603.131 243.152 666.479 243.152C729.826 243.152 781.18 292.089 781.18 352.457Z" fill="#FBBF24"/>
<path fill-rule="evenodd" clip-rule="evenodd" d="M868.275 206.597L808.343 149.957L748.411 206.597L808.343 263.238L868.275 206.597ZM808.343 145.032L743.199 206.597L808.343 268.163L873.487 206.597L808.343 145.032Z" fill="#BFDBFE"/>
</g>
<path d="M57.7721 286.08L72.5125 310.209H43.0317L57.7721 286.08Z" fill="#93C5FD"/>
<rect x="872.178" y="113.688" width="184.255" height="175.875" rx="20" fill="white"/>
<path fill-rule="evenodd" clip-rule="evenodd" d="M955.062 244.825C973.432 244.825 988.199 230.881 988.199 213.826C988.199 196.772 973.432 182.828 955.062 182.828C936.693 182.828 921.926 196.772 921.926 213.826C921.926 230.881 936.693 244.825 955.062 244.825ZM955.062 253.532C978.451 253.532 997.411 235.755 997.411 213.826C997.411 191.898 978.451 174.121 955.062 174.121C931.674 174.121 912.714 191.898 912.714 213.826C912.714 235.755 931.674 253.532 955.062 253.532Z" fill="#BFDBFE"/>
<path d="M974.31 201.259L986.493 158.287L1019.78 189.745L974.31 201.259Z" fill="#FBBF24"/>
<g clip-path="url(#clip2_59_7976)">
<rect x="658.442" y="380.112" width="184.255" height="266.424" rx="20" fill="white"/>
<path fill-rule="evenodd" clip-rule="evenodd" d="M831.181 680.492C882.825 680.492 924.69 640.926 924.69 592.119C924.69 543.312 882.825 503.747 831.181 503.747C779.537 503.747 737.672 543.312 737.672 592.119C737.672 640.926 779.537 680.492 831.181 680.492ZM831.181 689.199C887.913 689.199 933.903 645.735 933.903 592.119C933.903 538.504 887.913 495.04 831.181 495.04C774.449 495.04 728.459 538.504 728.459 592.119C728.459 645.735 774.449 689.199 831.181 689.199Z" fill="#FBBF24"/>
<path d="M755.176 459.54C755.176 475.998 740.946 489.34 723.392 489.34C705.838 489.34 691.608 475.998 691.608 459.54C691.608 443.082 705.838 429.74 723.392 429.74C740.946 429.74 755.176 443.082 755.176 459.54Z" fill="#BFDBFE"/>
<path fill-rule="evenodd" clip-rule="evenodd" d="M723.392 486.728C739.44 486.728 752.412 474.536 752.412 459.54C752.412 444.544 739.44 432.352 723.392 432.352C707.344 432.352 694.372 444.544 694.372 459.54C694.372 474.536 707.344 486.728 723.392 486.728ZM723.392 489.34C740.946 489.34 755.176 475.998 755.176 459.54C755.176 443.082 740.946 429.74 723.392 429.74C705.838 429.74 691.608 443.082 691.608 459.54C691.608 475.998 705.838 489.34 723.392 489.34Z" fill="#BFDBFE"/>
</g>
<g clip-path="url(#clip3_59_7976)">
<rect x="872.178" y="317.424" width="184.255" height="297.768" rx="20" fill="white"/>
<path d="M1098.81 532.043C1098.81 553.441 1080.66 570.788 1058.27 570.788C1035.89 570.788 1017.74 553.441 1017.74 532.043C1017.74 510.645 1035.89 493.299 1058.27 493.299C1080.66 493.299 1098.81 510.645 1098.81 532.043Z" fill="white"/>
<path fill-rule="evenodd" clip-rule="evenodd" d="M1058.27 568.176C1079.11 568.176 1096.05 552.027 1096.05 532.043C1096.05 512.06 1079.11 495.911 1058.27 495.911C1037.44 495.911 1020.5 512.06 1020.5 532.043C1020.5 552.027 1037.44 568.176 1058.27 568.176ZM1058.27 570.788C1080.66 570.788 1098.81 553.441 1098.81 532.043C1098.81 510.645 1080.66 493.299 1058.27 493.299C1035.89 493.299 1017.74 510.645 1017.74 532.043C1017.74 553.441 1035.89 570.788 1058.27 570.788Z" fill="#BFDBFE"/>
<path d="M1025.11 422.339C1025.11 450.95 1000.77 474.144 970.754 474.144C940.735 474.144 916.399 450.95 916.399 422.339C916.399 393.728 940.735 370.535 970.754 370.535C1000.77 370.535 1025.11 393.728 1025.11 422.339Z" fill="#BFDBFE"/>
<path d="M906.265 522.031L908.864 529.098L916.779 529.25L910.47 533.77L912.763 540.931L906.265 536.658L899.767 540.931L902.059 533.77L895.75 529.25L903.665 529.098L906.265 522.031Z" fill="#FBBF24"/>
<path d="M944.037 522.031L946.636 529.098L954.551 529.25L948.243 533.77L950.535 540.931L944.037 536.658L937.539 540.931L939.831 533.77L933.523 529.25L941.438 529.098L944.037 522.031Z" fill="#FBBF24"/>
<path d="M981.809 522.031L984.408 529.098L992.323 529.25L986.015 533.77L988.307 540.931L981.809 536.658L975.311 540.931L977.603 533.77L971.295 529.25L979.21 529.098L981.809 522.031Z" fill="#FBBF24"/>
<path d="M1019.58 522.031L1022.18 529.098L1030.1 529.25L1023.79 533.77L1026.08 540.931L1019.58 536.658L1013.08 540.931L1015.38 533.77L1009.07 529.25L1016.98 529.098L1019.58 522.031Z" fill="#FBBF24"/>
<path d="M1057.35 522.031L1059.95 529.098L1067.87 529.25L1061.56 533.77L1063.85 540.931L1057.35 536.658L1050.86 540.931L1053.15 533.77L1046.84 529.25L1054.75 529.098L1057.35 522.031Z" fill="#FBBF24"/>
</g>
</g>
<rect x="22.5" y="12.5" width="1095" height="689" rx="17.5" stroke="white" stroke-width="5"/>
</g>
<defs>
<filter id="filter0_dd_59_7976" x="0" y="0" width="1140" height="744" filterUnits="userSpaceOnUse" color-interpolation-filters="sRGB">
<feFlood flood-opacity="0" result="BackgroundImageFix"/>
<feColorMatrix in="SourceAlpha" type="matrix" values="0 0 0 0 0 0 0 0 0 0 0 0 0 0 0 0 0 0 127 0" result="hardAlpha"/>
<feOffset/>
<feGaussianBlur stdDeviation="5"/>
<feColorMatrix type="matrix" values="0 0 0 0 0 0 0 0 0 0 0 0 0 0 0 0 0 0 0.07 0"/>
<feBlend mode="normal" in2="BackgroundImageFix" result="effect1_dropShadow_59_7976"/>
<feColorMatrix in="SourceAlpha" type="matrix" values="0 0 0 0 0 0 0 0 0 0 0 0 0 0 0 0 0 0 127 0" result="hardAlpha"/>
<feMorphology radius="5" operator="erode" in="SourceAlpha" result="effect2_dropShadow_59_7976"/>
<feOffset dy="20"/>
<feGaussianBlur stdDeviation="12.5"/>
<feColorMatrix type="matrix" values="0 0 0 0 0 0 0 0 0 0 0 0 0 0 0 0 0 0 0.1 0"/>
<feBlend mode="normal" in2="effect1_dropShadow_59_7976" result="effect2_dropShadow_59_7976"/>
<feBlend mode="normal" in="SourceGraphic" in2="effect2_dropShadow_59_7976" result="shape"/>
</filter>
<clipPath id="clip0_59_7976">
<rect x="20" y="10" width="1100" height="694" rx="20" fill="white"/>
</clipPath>
<clipPath id="clip1_59_7976">
<rect x="658.442" y="113.688" width="184.255" height="238.563" rx="20" fill="white"/>
</clipPath>
<clipPath id="clip2_59_7976">
<rect x="658.442" y="380.112" width="184.255" height="266.424" rx="20" fill="white"/>
</clipPath>
<clipPath id="clip3_59_7976">
<rect x="872.178" y="317.424" width="184.255" height="297.768" rx="20" fill="white"/>
</clipPath>
</defs>
</svg>
