<svg width="64" height="64" viewBox="0 0 64 64" fill="none" xmlns="http://www.w3.org/2000/svg">
<path d="M43.9263 53.3332H10.9333C10.0496 53.3332 9.33325 52.617 9.33325 51.7332V25.5999C9.33325 24.7162 10.0496 23.9999 10.9333 23.9999H18.3136C20.187 23.9999 21.923 23.017 22.8869 21.4105L30.1146 9.36418C31.6743 6.7649 35.3477 6.51781 37.2413 8.88485C38.1338 10.0006 38.4215 11.4835 38.0109 12.852L35.2845 21.9401C34.9765 22.9667 35.7453 23.9999 36.817 23.9999H49.0173C52.5338 23.9999 55.0879 27.3439 54.1626 30.7364L49.0717 49.4031C48.4389 51.7236 46.3314 53.3332 43.9263 53.3332Z" stroke="#7E22CE" stroke-width="1.5" stroke-linecap="round"/>
<path d="M18.6667 53.3333V24" stroke="#7E22CE" stroke-width="1.5" stroke-linecap="round" stroke-linejoin="round"/>
</svg>
