<svg width="64" height="64" viewBox="0 0 64 64" fill="none" xmlns="http://www.w3.org/2000/svg">
<path d="M48 58.6666H16C11.5817 58.6666 8 55.085 8 50.6666V45.3333C8 40.9149 11.5817 37.3333 16 37.3333H48C52.4184 37.3333 56 40.9149 56 45.3333V50.6666C56 55.085 52.4184 58.6666 48 58.6666Z" stroke="#7E22CE" stroke-width="1.5"/>
<path d="M8 21.3333V15.9999C8 10.1089 12.7756 5.33325 18.6667 5.33325H45.3333C51.2243 5.33325 56 10.1089 56 15.9999V21.3333" stroke="#7E22CE" stroke-width="1.5" stroke-linecap="round" stroke-linejoin="round"/>
<path d="M32 16L40 24M32 37.3333V16V37.3333ZM32 16L24 24L32 16Z" stroke="#7E22CE" stroke-width="1.5" stroke-linecap="round" stroke-linejoin="round"/>
</svg>
