<svg width="58" height="58" viewBox="0 0 58 58" fill="none" xmlns="http://www.w3.org/2000/svg">
<path fill-rule="evenodd" clip-rule="evenodd" d="M7.19995 18C7.19995 17.0058 8.00584 16.2 8.99995 16.2H48.5999C49.5941 16.2 50.3999 17.0058 50.3999 18C50.3999 18.9941 49.5941 19.8 48.5999 19.8H8.99995C8.00584 19.8 7.19995 18.9941 7.19995 18Z" fill="white"/>
<path fill-rule="evenodd" clip-rule="evenodd" d="M7.19995 28.8C7.19995 27.8059 8.00584 27 8.99995 27H48.5999C49.5941 27 50.3999 27.8059 50.3999 28.8C50.3999 29.7941 49.5941 30.6 48.5999 30.6H8.99995C8.00584 30.6 7.19995 29.7941 7.19995 28.8Z" fill="white"/>
<path fill-rule="evenodd" clip-rule="evenodd" d="M7.19995 39.6C7.19995 38.6059 8.00584 37.8 8.99995 37.8H48.5999C49.5941 37.8 50.3999 38.6059 50.3999 39.6C50.3999 40.5942 49.5941 41.4 48.5999 41.4H8.99995C8.00584 41.4 7.19995 40.5942 7.19995 39.6Z" fill="white"/>
</svg>
