<svg width="58" height="58" viewBox="0 0 58 58" fill="none" xmlns="http://www.w3.org/2000/svg">
<path fill-rule="evenodd" clip-rule="evenodd" d="M19.8719 5.40135C20.7241 5.43538 21.4354 6.06276 21.5756 6.904L27.4629 42.2279L32.4694 24.7054C32.6862 23.9466 33.372 23.4175 34.161 23.4003C34.95 23.3832 35.6582 23.882 35.9077 24.6307L39.0975 34.1999H45.0001C45.9942 34.1999 46.8001 35.0058 46.8001 35.9999C46.8001 36.994 45.9942 37.7999 45.0001 37.7999H37.8001C37.0253 37.7999 36.3375 37.3041 36.0925 36.5691L34.3324 31.2889L28.7308 50.8944C28.4996 51.7036 27.7386 52.2446 26.8983 52.197C26.0581 52.1495 25.3629 51.526 25.2246 50.6958L19.4474 16.0325L14.3464 36.4365C14.146 37.2378 13.4261 37.7999 12.6001 37.7999H5.4001C4.40598 37.7999 3.6001 36.994 3.6001 35.9999C3.6001 35.0058 4.40598 34.1999 5.4001 34.1999H11.1947L18.0538 6.76335C18.2607 5.93598 19.0198 5.36732 19.8719 5.40135Z" fill="white"/>
<path fill-rule="evenodd" clip-rule="evenodd" d="M48.6 34.2001C47.6058 34.2001 46.8 35.006 46.8 36.0001C46.8 36.9942 47.6058 37.8001 48.6 37.8001C49.5941 37.8001 50.4 36.9942 50.4 36.0001C50.4 35.006 49.5941 34.2001 48.6 34.2001ZM43.2 36.0001C43.2 33.0178 45.6176 30.6001 48.6 30.6001C51.5823 30.6001 54 33.0178 54 36.0001C54 38.9824 51.5823 41.4001 48.6 41.4001C45.6176 41.4001 43.2 38.9824 43.2 36.0001Z" fill="white"/>
</svg>
