<svg width="58" height="58" viewBox="0 0 58 58" fill="none" xmlns="http://www.w3.org/2000/svg">
<path fill-rule="evenodd" clip-rule="evenodd" d="M14.0541 8.68163C17.2564 6.54195 21.0212 5.3999 24.8725 5.3999V7.1999L24.8727 5.3999C30.037 5.40023 34.9897 7.4519 38.6414 11.1036C42.2932 14.7554 44.3448 19.7081 44.3452 24.8724V24.8725C44.3452 28.7239 43.2031 32.4887 41.0634 35.6909C38.9238 38.8932 35.8825 41.3891 32.3244 42.8629C28.7662 44.3367 24.8509 44.7224 21.0736 43.971C17.2963 43.2196 13.8266 41.3651 11.1033 38.6418C8.38002 35.9185 6.52543 32.4488 5.77407 28.6715C5.02272 24.8941 5.40834 20.9788 6.88218 17.4207C8.35601 13.8625 10.8519 10.8213 14.0541 8.68163ZM24.8725 8.9999C29.0821 9.0002 33.1192 10.6726 36.0958 13.6492C39.0725 16.6258 40.7449 20.6629 40.7452 24.8725M24.8724 8.9999C21.7332 8.99993 18.6644 9.93084 16.0542 11.6749C13.4439 13.419 11.4095 15.898 10.2081 18.7983C9.00678 21.6987 8.69245 24.8901 9.3049 27.9691C9.91735 31.0481 11.4291 33.8763 13.6489 36.0962C15.8687 38.316 18.697 39.8277 21.7759 40.4402C24.8549 41.0526 28.0464 40.7383 30.9467 39.5369C33.8471 38.3356 36.326 36.3011 38.0701 33.6909C39.8142 31.0807 40.7451 28.0119 40.7452 24.8726" fill="white"/>
<path fill-rule="evenodd" clip-rule="evenodd" d="M36.7848 36.7848C37.4877 36.0818 38.6274 36.0818 39.3304 36.7848L51.6727 49.1272C52.3757 49.8301 52.3757 50.9698 51.6727 51.6727C50.9698 52.3757 49.8301 52.3757 49.1272 51.6727L36.7848 39.3304C36.0818 38.6274 36.0818 37.4877 36.7848 36.7848Z" fill="white"/>
</svg>
