<svg width="20" height="19" viewBox="0 0 20 19" fill="none" xmlns="http://www.w3.org/2000/svg">
<path d="M2 16.09C2 16.3552 1.89464 16.6096 1.70711 16.7971C1.51957 16.9846 1.26522 17.09 1 17.09C0.734784 17.09 0.48043 16.9846 0.292893 16.7971C0.105357 16.6096 0 16.3552 0 16.09V10C0 4.477 4.477 0 10 0C15.523 0 20 4.477 20 10V13.086C20 13.3512 19.8946 13.6056 19.7071 13.7931C19.5196 13.9806 19.2652 14.086 19 14.086C18.7348 14.086 18.4804 13.9806 18.2929 13.7931C18.1054 13.6056 18 13.3512 18 13.086V10C18 7.87827 17.1571 5.84344 15.6569 4.34315C14.1566 2.84285 12.1217 2 10 2C7.87827 2 5.84344 2.84285 4.34315 4.34315C2.84285 5.84344 2 7.87827 2 10V16.09ZM2 10H4C4.53043 10 5.03914 10.2107 5.41421 10.5858C5.78929 10.9609 6 11.4696 6 12V17C6 17.5304 5.78929 18.0391 5.41421 18.4142C5.03914 18.7893 4.53043 19 4 19H2C1.46957 19 0.960859 18.7893 0.585786 18.4142C0.210714 18.0391 0 17.5304 0 17V12C0 11.4696 0.210714 10.9609 0.585786 10.5858C0.960859 10.2107 1.46957 10 2 10ZM2 12V17H4V12H2ZM16 10H18C18.5304 10 19.0391 10.2107 19.4142 10.5858C19.7893 10.9609 20 11.4696 20 12V17C20 17.5304 19.7893 18.0391 19.4142 18.4142C19.0391 18.7893 18.5304 19 18 19H16C15.4696 19 14.9609 18.7893 14.5858 18.4142C14.2107 18.0391 14 17.5304 14 17V12C14 11.4696 14.2107 10.9609 14.5858 10.5858C14.9609 10.2107 15.4696 10 16 10ZM16 12V17H18V12H16Z" fill="#0369A1"/>
</svg>
