<svg width="64" height="64" viewBox="0 0 64 64" fill="none" xmlns="http://www.w3.org/2000/svg">
<path d="M18.6666 50.6667C21.6121 50.6667 23.9999 48.2789 23.9999 45.3333C23.9999 42.3877 21.6121 40 18.6666 40C15.7211 40 13.3333 42.3877 13.3333 45.3333C13.3333 48.2789 15.7211 50.6667 18.6666 50.6667Z" stroke="#7E22CE" stroke-width="1.5" stroke-miterlimit="1.5" stroke-linecap="round" stroke-linejoin="round"/>
<path d="M45.3333 50.6667C48.2789 50.6667 50.6667 48.2789 50.6667 45.3333C50.6667 42.3877 48.2789 40 45.3333 40C42.3877 40 40 42.3877 40 45.3333C40 48.2789 42.3877 50.6667 45.3333 50.6667Z" stroke="#7E22CE" stroke-width="1.5" stroke-miterlimit="1.5" stroke-linecap="round" stroke-linejoin="round"/>
<path d="M37.3333 45.3333V17.6C37.3333 16.7163 36.617 16 35.7333 16H6.93325C6.0496 16 5.33325 16.7163 5.33325 17.6V43.7333C5.33325 44.6171 6.0496 45.3333 6.93325 45.3333H12.3999" stroke="#7E22CE" stroke-width="1.5" stroke-linecap="round"/>
<path d="M37.3334 45.3334H24.1335" stroke="#7E22CE" stroke-width="1.5" stroke-linecap="round"/>
<path d="M37.3333 24H52.2935C52.9258 24 53.4989 24.3724 53.7557 24.9502L58.5287 35.6896C58.6197 35.8944 58.6666 36.1157 58.6666 36.3395V43.7333C58.6666 44.6171 57.9503 45.3333 57.0666 45.3333H51.9999" stroke="#7E22CE" stroke-width="1.5" stroke-linecap="round"/>
<path d="M37.3333 45.3334H39.9999" stroke="#7E22CE" stroke-width="1.5" stroke-linecap="round"/>
</svg>
